<svg xmlns="http://www.w3.org/2000/svg" viewBox="0 0 960 540">
<defs>
<style>
.bg{fill:#1a1816}
.card{rx:6;fill:#221f1c}
.cc{stroke:#2d8fba;stroke-width:1}.cp{stroke:#8f5fbf;stroke-width:1}
.ca{stroke:#4faf6f;stroke-width:1}.co{stroke:#c05e2f;stroke-width:1}.ck{stroke:#bf8f4f;stroke-width:1}
.lb{font-family:system-ui,sans-serif;font-size:9px;font-weight:700;letter-spacing:1.5px;text-transform:uppercase}
.lc{fill:#2d8fba}.lp{fill:#8f5fbf}.la{fill:#4faf6f}.lo{fill:#c05e2f}.lk{fill:#bf8f4f}
.nt{font-family:system-ui,sans-serif;font-size:8.5px;fill:#d4cfc8}
.ns{font-family:monospace;font-size:6.5px;fill:#5c554d}
.fl{stroke:#2d8fba;stroke-width:1;fill:none;marker-end:url(#c);opacity:.55}
.fp{stroke:#8f5fbf;stroke-width:1;fill:none;marker-end:url(#d);opacity:.55}
.fm{stroke:#c05e2f;stroke-width:1.8;fill:none;marker-end:url(#b)}
</style>
<marker id="b" viewBox="0 0 6 6" refX="6" refY="3" markerWidth="5" markerHeight="5" orient="auto"><path d="M0,0 L6,3 L0,6 Z" fill="#c05e2f"/></marker>
<marker id="c" viewBox="0 0 6 6" refX="6" refY="3" markerWidth="5" markerHeight="5" orient="auto"><path d="M0,0 L6,3 L0,6 Z" fill="#2d8fba"/></marker>
<marker id="d" viewBox="0 0 6 6" refX="6" refY="3" markerWidth="5" markerHeight="5" orient="auto"><path d="M0,0 L6,3 L0,6 Z" fill="#8f5fbf"/></marker>
</defs>
<rect class="bg" width="960" height="540"/><rect fill="#c05e2f" x="0" y="0" width="960" height="2.5"/><text class="nt" x="24" y="28" style="font-size:14px;font-weight:700">Priority Pulse</text><text class="ns" x="24" y="42" style="font-size:7.5px">v1.7 &#8212; Local-first productivity intelligence pipeline</text><text class="ns" x="24" y="53" style="font-size:7.5px">9 sources &#183; background scheduler &#183; ADHD-aware AI triage &#183; zero cloud</text><text class="lb lc" x="24" y="76">&#9656; COLLECTION</text><line x1="118" y1="73" x2="178" y2="73" stroke="#2d8fba" stroke-width=".5" opacity=".4"/><rect class="card cc" x="18" y="84" width="155" height="28" rx="6"/><text class="nt" x="28" y="97">UI Tracker</text><text class="ns" x="28" y="107">pythonw &#8212; continuous</text><rect class="card cc" x="18" y="115" width="155" height="28" rx="6"/><text class="nt" x="28" y="128">Phone Tracker</text><text class="ns" x="28" y="138">hotkey Ctrl+Alt+P</text><rect class="card cc" x="18" y="146" width="155" height="28" rx="6"/><text class="nt" x="28" y="159">Google Calendar</text><text class="ns" x="28" y="169">OAuth 2.0 &#8212; q15m</text><rect class="card cc" x="18" y="177" width="155" height="28" rx="6"/><text class="nt" x="28" y="190">Google Tasks</text><text class="ns" x="28" y="200">OAuth 2.0 &#8212; q15m</text><rect class="card cc" x="18" y="208" width="155" height="28" rx="6"/><text class="nt" x="28" y="221">Gmail Sync</text><text class="ns" x="28" y="231">OAuth 2.0 &#8212; q15m</text><rect class="card cc" x="18" y="239" width="155" height="28" rx="6"/><text class="nt" x="28" y="252">Work Email Feed</text><text class="ns" x="28" y="262">Power Automate &#8594; Sheets</text><rect class="card cc" x="18" y="270" width="155" height="28" rx="6"/><text class="nt" x="28" y="283">Work Calendar</text><text class="ns" x="28" y="293">Outlook ICS &#8594; Google Cal</text><rect class="card cc" x="18" y="301" width="155" height="28" rx="6"/><text class="nt" x="28" y="314">Otter Transcripts</text><text class="ns" x="28" y="324">File drop &#8594; parser</text><rect class="card cc" x="18" y="332" width="155" height="28" rx="6"/><text class="nt" x="28" y="345">Attachment Index</text><text class="ns" x="28" y="355">3x daily scan</text><rect class="card cc" x="18" y="363" width="155" height="28" rx="6"/><text class="nt" x="28" y="376">Browser History</text><text class="ns" x="28" y="386">daily export</text><text class="lb lp" x="230" y="76">&#9656; PROCESSING</text><line x1="324" y1="73" x2="396" y2="73" stroke="#8f5fbf" stroke-width=".5" opacity=".4"/><rect class="card cp" x="230" y="100" width="170" height="28" rx="6"/><text class="nt" x="240" y="113">google_sync.py</text><text class="ns" x="240" y="123">Calendar + Tasks &#8212; q15m</text><rect class="card cp" x="230" y="135" width="170" height="28" rx="6"/><text class="nt" x="240" y="148">gmail_sync.py</text><text class="ns" x="240" y="158">Inbox/Sent/Starred &#8212; q15m</text><rect class="card cp" x="230" y="170" width="170" height="28" rx="6"/><text class="nt" x="240" y="183">otter_parser.py</text><text class="ns" x="240" y="193">Action item extraction</text><rect class="card" x="230" y="220" width="170" height="55" rx="6" stroke="#8f5fbf" stroke-width="1.5"/><text class="nt" x="240" y="237" style="font-weight:700;font-size:10px">Daily Packager v1.6</text><text class="ns" x="240" y="250">9 sources &#8594; ~32 KB package</text><text class="ns" x="240" y="261">Runs 5:30 PM daily</text><text class="lb la" x="430" y="76">&#9656; ANALYSIS</text><line x1="494" y1="73" x2="603" y2="73" stroke="#4faf6f" stroke-width=".5" opacity=".4"/><rect x="430" y="160" width="185" height="100" rx="8" fill="#1a2e22" stroke="#4faf6f" stroke-width="1.5"/><text class="nt" x="443" y="182" style="font-weight:700;font-size:12px;fill:#4faf6f">Claude AI</text><text class="ns" x="443" y="195" style="fill:#8a8279">claude_delivery.py &#8212; 5:35 PM</text><line x1="443" y1="202" x2="601" y2="202" stroke="#2a3e32" stroke-width=".5"/><text class="ns" x="443" y="215" style="fill:#8a8279">&#9656; ADHD-aware triage</text><text class="ns" x="443" y="227" style="fill:#8a8279">&#9656; Dropped task detection</text><text class="ns" x="443" y="239" style="fill:#8a8279">&#9656; Time allocation analysis</text><text class="ns" x="443" y="251" style="fill:#8a8279">&#9656; Pattern recognition</text><text class="lb lo" x="645" y="76">&#9656; OUTPUT</text><line x1="695" y1="73" x2="797" y2="73" stroke="#c05e2f" stroke-width=".5" opacity=".4"/><rect x="645" y="150" width="175" height="65" rx="8" fill="#2e1c1a" stroke="#c05e2f" stroke-width="1.5"/><text class="nt" x="658" y="172" style="font-weight:700;font-size:12px;fill:#c05e2f">Triage &#8594; User</text><text class="ns" x="658" y="186" style="fill:#8a8279">Prioritized actions + insights</text><text class="ns" x="658" y="198" style="fill:#8a8279">Dropped task alerts</text><rect x="645" y="230" width="175" height="50" rx="8" fill="#2e1c1a" stroke="#c05e2f" stroke-width="1.2"/><text class="nt" x="658" y="252" style="font-weight:700;font-size:11px;fill:#c05e2f">Obsidian Daily Note</text><text class="ns" x="658" y="266" style="fill:#8a8279">Calendar + tasks + status</text><rect x="18" y="420" width="940" height="2" fill="#bf8f4f" opacity=".2"/><text class="lb lk" x="24" y="448">&#9656; ORCHESTRATION</text><line x1="138" y1="445" x2="940" y2="445" stroke="#bf8f4f" stroke-width=".5" opacity=".3"/><rect class="card ck" x="24" y="460" width="150" height="35" rx="6"/><text class="nt" x="34" y="475" style="font-size:8px">START_PRIORITY_PULSE.bat</text><text class="ns" x="34" y="488">shell:startup &#8212; self-hiding</text><rect class="card ck" x="186" y="460" width="150" height="35" rx="6"/><text class="nt" x="196" y="475" style="font-size:8px">pp_scheduler.py</text><text class="ns" x="196" y="488">Background cadence mgr</text><rect class="card ck" x="348" y="460" width="150" height="35" rx="6"/><text class="nt" x="358" y="475" style="font-size:8px">pp_health_check_v2.py</text><text class="ns" x="358" y="488">Every 30 min &#8212; auto-fix</text><rect class="card ck" x="510" y="460" width="130" height="35" rx="6"/><text class="nt" x="520" y="475" style="font-size:8px">Watchdog v3</text><text class="ns" x="520" y="488">Process monitor &#8212; q5m</text><rect class="card ck" x="652" y="460" width="130" height="35" rx="6"/><text class="nt" x="662" y="475" style="font-size:8px">silent_launcher.vbs</text><text class="ns" x="662" y="488">Hidden window launcher</text><rect x="800" y="460" width="155" height="35" rx="4" fill="#221f1c" stroke="#3a342e" stroke-width=".5"/><text class="ns" x="810" y="475" style="font-size:7px;fill:#3a342e">Local-first &#183; No cloud</text><text class="ns" x="810" y="487" style="font-size:7px;fill:#3a342e">No telemetry &#183; Your data only</text><line x1="190" y1="98" x2="190" y2="377" stroke="#2d8fba" stroke-width=".8" opacity=".35"/><line x1="173" y1="98" x2="190" y2="98" stroke="#2d8fba" stroke-width=".8" opacity=".35"/><line x1="173" y1="129" x2="190" y2="129" stroke="#2d8fba" stroke-width=".8" opacity=".35"/><line x1="173" y1="160" x2="190" y2="160" stroke="#2d8fba" stroke-width=".8" opacity=".35"/><line x1="173" y1="191" x2="190" y2="191" stroke="#2d8fba" stroke-width=".8" opacity=".35"/><line x1="173" y1="222" x2="190" y2="222" stroke="#2d8fba" stroke-width=".8" opacity=".35"/><line x1="173" y1="253" x2="190" y2="253" stroke="#2d8fba" stroke-width=".8" opacity=".35"/><line x1="173" y1="284" x2="190" y2="284" stroke="#2d8fba" stroke-width=".8" opacity=".35"/><line x1="173" y1="315" x2="190" y2="315" stroke="#2d8fba" stroke-width=".8" opacity=".35"/><line x1="173" y1="346" x2="190" y2="346" stroke="#2d8fba" stroke-width=".8" opacity=".35"/><line x1="173" y1="377" x2="190" y2="377" stroke="#2d8fba" stroke-width=".8" opacity=".35"/><path class="fl" d="M190,114 H230"/><path class="fl" d="M190,149 H230"/><path class="fl" d="M190,184 H230"/><path class="fl" d="M190,247 H230"/><path class="fp" d="M315,128 V220"/><path class="fp" d="M315,163 V220"/><path class="fp" d="M315,198 V220"/><path class="fm" d="M400,247 H430"/><path class="fm" d="M615,200 H645"/><path class="fm" d="M615,230 H645"/><circle r="3" fill="#c05e2f" opacity="0"><animate attributeName="cx" values="400;430" dur="2s" repeatCount="indefinite"/><animate attributeName="cy" values="247;247" dur="2s" repeatCount="indefinite"/><animate attributeName="opacity" values="0;.9;0" dur="2s" repeatCount="indefinite"/></circle><circle r="3" fill="#c05e2f" opacity="0"><animate attributeName="cx" values="615;645" dur="2s" repeatCount="indefinite" begin=".8s"/><animate attributeName="cy" values="200;200" dur="2s" repeatCount="indefinite" begin=".8s"/><animate attributeName="opacity" values="0;.9;0" dur="2s" repeatCount="indefinite" begin=".8s"/></circle><rect fill="#c05e2f" x="0" y="537.5" width="960" height="2.5"/></svg>